<svg xmlns="http://www.w3.org/2000/svg">
  <symbol id="bluesky-icon" viewBox="0 0 16 17">
    <g clip-path="url(#bluesky-clip)"><path fill="#08060d" d="M7.75 7.735c-.693-1.348-2.58-3.86-4.334-5.097-1.68-1.187-2.32-.981-2.74-.79C.188 2.065.1 2.812.1 3.251s.241 3.602.398 4.13c.52 1.744 2.367 2.333 4.07 2.145-2.495.37-4.71 1.278-1.805 4.512 3.196 3.309 4.38-.71 4.987-2.746.608 2.036 1.307 5.91 4.93 2.746 2.72-2.746.747-4.143-1.747-4.512 1.702.189 3.55-.4 4.07-2.145.156-.528.397-3.691.397-4.13s-.088-1.186-.575-1.406c-.42-.19-1.06-.395-2.741.79-1.755 1.24-3.64 3.752-4.334 5.099"/></g>
    <defs><clipPath id="bluesky-clip"><path fill="#fff" d="M.1.85h15.3v15.3H.1z"/></clipPath></defs>
  </symbol>
  <symbol id="discord-icon" viewBox="0 0 20 19">
    <path fill="#08060d" d="M16.224 3.768a14.5 14.5 0 0 0-3.67-1.153c-.158.286-.343.67-.47.976a13.5 13.5 0 0 0-4.067 0c-.128-.306-.317-.69-.476-.976A14.4 14.4 0 0 0 3.868 3.77C1.546 7.28.916 10.703 1.231 14.077a14.7 14.7 0 0 0 4.5 2.306q.545-.748.965-1.587a9.5 9.5 0 0 1-1.518-.74q.191-.14.372-.293c2.927 1.369 6.107 1.369 8.999 0q.183.152.372.294-.723.437-1.52.74.418.838.963 1.588a14.6 14.6 0 0 0 4.504-2.308c.37-3.911-.63-7.302-2.644-10.309m-9.13 8.234c-.878 0-1.599-.82-1.599-1.82 0-.998.705-1.82 1.6-1.82.894 0 1.614.82 1.599 1.82.001 1-.705 1.82-1.6 1.82m5.91 0c-.878 0-1.599-.82-1.599-1.82 0-.998.705-1.82 1.6-1.82.893 0 1.614.82 1.599 1.82 0 1-.706 1.82-1.6 1.82"/>
  </symbol>
  <symbol id="documentation-icon" viewBox="0 0 21 20">
    <path fill="none" stroke="#aa3bff" stroke-linecap="round" stroke-linejoin="round" stroke-width="1.35" d="m15.5 13.333 1.533 1.322c.645.555.967.833.967 1.178s-.322.623-.967 1.179L15.5 18.333m-3.333-5-1.534 1.322c-.644.555-.966.833-.966 1.178s.322.623.966 1.179l1.534 1.321"/>
    <path fill="none" stroke="#aa3bff" stroke-linecap="round" stroke-linejoin="round" stroke-width="1.35" d="M17.167 10.836v-4.32c0-1.41 0-2.117-.224-2.68-.359-.906-1.118-1.621-2.08-1.96-.599-.21-1.349-.21-2.848-.21-2.623 0-3.935 0-4.983.369-1.684.591-3.013 1.842-3.641 3.428C3 6.449 3 7.684 3 10.154v2.122c0 2.558 0 3.838.706 4.726q.306.383.713.671c.76.536 1.79.64 3.581.66"/>
    <path fill="none" stroke="#aa3bff" stroke-linecap="round" stroke-linejoin="round" stroke-width="1.35" d="M3 10a2.78 2.78 0 0 1 2.778-2.778c.555 0 1.209.097 1.748-.047.48-.129.854-.503.982-.982.145-.54.048-1.194.048-1.749a2.78 2.78 0 0 1 2.777-2.777"/>
  </symbol>
  <symbol id="github-icon" viewBox="0 0 19 19">
    <path fill="#08060d" fill-rule="evenodd" d="M9.356 1.85C5.05 1.85 1.57 5.356 1.57 9.694a7.84 7.84 0 0 0 5.324 7.44c.387.079.528-.168.528-.376 0-.182-.013-.805-.013-1.454-2.165.467-2.616-.935-2.616-.935-.349-.91-.864-1.143-.864-1.143-.71-.48.051-.48.051-.48.787.051 1.2.805 1.2.805.695 1.194 1.817.857 2.268.649.064-.507.27-.857.49-1.052-1.728-.182-3.545-.857-3.545-3.87 0-.857.31-1.558.8-2.104-.078-.195-.349-1 .077-2.078 0 0 .657-.208 2.14.805a7.5 7.5 0 0 1 1.946-.26c.657 0 1.328.092 1.946.26 1.483-1.013 2.14-.805 2.14-.805.426 1.078.155 1.883.078 2.078.502.546.799 1.247.799 2.104 0 3.013-1.818 3.675-3.558 3.87.284.247.528.714.528 1.454 0 1.052-.012 1.896-.012 2.156 0 .208.142.455.528.377a7.84 7.84 0 0 0 5.324-7.441c.013-4.338-3.48-7.844-7.773-7.844" clip-rule="evenodd"/>
  </symbol>
  <symbol id="social-icon" viewBox="0 0 20 20">
    <path fill="none" stroke="#aa3bff" stroke-linecap="round" stroke-linejoin="round" stroke-width="1.35" d="M12.5 6.667a4.167 4.167 0 1 0-8.334 0 4.167 4.167 0 0 0 8.334 0"/>
    <path fill="none" stroke="#aa3bff" stroke-linecap="round" stroke-linejoin="round" stroke-width="1.35" d="M2.5 16.667a5.833 5.833 0 0 1 8.75-5.053m3.837.474.513 1.035c.07.144.257.282.414.309l.93.155c.596.1.736.536.307.965l-.723.73a.64.64 0 0 0-.152.531l.207.903c.164.715-.213.991-.84.618l-.872-.52a.63.63 0 0 0-.577 0l-.872.52c-.624.373-1.003.094-.84-.618l.207-.903a.64.64 0 0 0-.152-.532l-.723-.729c-.426-.43-.289-.864.306-.964l.93-.156a.64.64 0 0 0 .412-.31l.513-1.034c.28-.562.735-.562 1.012 0"/>
  </symbol>
  <symbol id="x-icon" viewBox="0 0 19 19">
    <path fill="#08060d" fill-rule="evenodd" d="M1.893 1.98c.052.072 1.245 1.769 2.653 3.77l2.892 4.114c.183.261.333.48.333.486s-.068.089-.152.183l-.522.593-.765.867-3.597 4.087c-.375.426-.734.834-.798.905a1 1 0 0 0-.118.148c0 .01.236.017.664.017h.663l.729-.83c.4-.457.796-.906.879-.999a692 692 0 0 0 1.794-2.038c.034-.037.301-.34.594-.675l.551-.624.345-.392a7 7 0 0 1 .34-.374c.006 0 .93 1.306 2.052 2.903l2.084 2.965.045.063h2.275c1.87 0 2.273-.003 2.266-.021-.008-.02-1.098-1.572-3.894-5.547-2.013-2.862-2.28-3.246-2.273-3.266.008-.019.282-.332 2.085-2.38l2-2.274 1.567-1.782c.022-.028-.016-.03-.65-.03h-.674l-.3.342a871 871 0 0 1-1.782 2.025c-.067.075-.405.458-.75.852a100 100 0 0 1-.803.91c-.148.172-.299.344-.99 1.127-.304.343-.32.358-.345.327-.015-.019-.904-1.282-1.976-2.808L6.365 1.85H1.8zm1.782.91 8.078 11.294c.772 1.08 1.413 1.973 1.425 1.984.016.017.241.02 1.05.017l1.03-.004-2.694-3.766L7.796 5.75 5.722 2.852l-1.039-.004-1.039-.004z" clip-rule="evenodd"/>
  </symbol>
  <symbol id="lang-globe-icon" viewBox="0 0 16 16">
    <g clip-path="url(#clip-lang-globe)">
      <path fill-rule="evenodd" clip-rule="evenodd" d="M7.99935 15.334C12.0494 15.334 15.3327 12.0507 15.3327 8.00065C15.3327 3.95056 12.0494 0.667318 7.99935 0.667318C3.94926 0.667318 0.666016 3.95056 0.666016 8.00065C0.666016 12.0507 3.94926 15.334 7.99935 15.334ZM6.01302 7.33398C6.07523 5.82982 6.34493 4.50341 6.73242 3.53451C6.95511 2.97777 7.20413 2.57147 7.44596 2.31576C7.68636 2.06164 7.87357 2.00065 7.99935 2.00065C8.12512 2.00065 8.31234 2.06164 8.55273 2.31576C8.79456 2.57147 9.04358 2.97777 9.26628 3.53451C9.65377 4.50341 9.92347 5.82982 9.98568 7.33398H6.01302ZM2.03711 7.33398C2.28424 5.0988 3.75878 3.23533 5.77214 2.42969C5.67276 2.62279 5.57982 2.82649 5.49479 3.03906C5.03501 4.18853 4.74185 5.68923 4.67904 7.33398H2.03711ZM11.3197 7.33398C11.2568 5.68923 10.9637 4.18853 10.5039 3.03906C10.4188 2.82639 10.3253 2.62287 10.2259 2.42969C12.2396 3.23521 13.7144 5.09859 13.9616 7.33398H11.3197ZM5.77214 13.5723C3.75866 12.7667 2.28425 10.9026 2.03711 8.66732H4.67904C4.74185 10.3121 5.03501 11.8128 5.49479 12.9622C5.5799 13.175 5.67266 13.379 5.77214 13.5723ZM7.99935 14.0007C7.87357 14.0007 7.68636 13.9397 7.44596 13.6855C7.20413 13.4298 6.95511 13.0235 6.73242 12.4668C6.34493 11.4979 6.07523 10.1715 6.01302 8.66732H9.98568C9.92347 10.1715 9.65377 11.4979 9.26628 12.4668C9.04358 13.0235 8.79456 13.4298 8.55273 13.6855C8.31234 13.9397 8.12512 14.0007 7.99935 14.0007ZM10.2259 13.5723C10.3254 13.3789 10.4188 13.1751 10.5039 12.9622C10.9637 11.8128 11.2568 10.3121 11.3197 8.66732H13.9616C13.7144 10.9028 12.2397 12.7668 10.2259 13.5723Z" fill="black" fill-opacity="0.94"/>
    </g>
    <defs>
      <clipPath id="clip-lang-globe">
        <rect width="16" height="16" fill="white" transform="matrix(1 0 0 -1 0 16)"/>
      </clipPath>
    </defs>
  </symbol>
  <symbol id="check-16" viewBox="0 0 16 16">
    <path d="M12.0259 3.3169C12.2353 3.01403 12.6501 2.93829 12.953 3.14763C13.2557 3.35702 13.3316 3.77189 13.1223 4.07472L7.07214 12.8286C6.95718 12.9948 6.77241 13.1007 6.57084 13.1151C6.36936 13.1294 6.17177 13.0509 6.03438 12.9028L2.75183 9.36313C2.50155 9.09321 2.51786 8.67144 2.78763 8.42107C3.05762 8.17072 3.47934 8.18624 3.72969 8.45623L6.44714 11.3872L12.0259 3.3169Z" fill="#2970FF"/>
  </symbol>
  <symbol id="lang-arrow-icon" viewBox="0 0 16 16">
    <path d="M3.52925 5.86128C3.2689 6.12163 3.2689 6.54374 3.52925 6.80409L7.52925 10.8041C7.7896 11.0644 8.21171 11.0644 8.47205 10.8041L12.4721 6.80409C12.7324 6.54374 12.7324 6.12163 12.4721 5.86128C12.2117 5.60093 11.7896 5.60093 11.5292 5.86128L8.00065 9.38987L4.47206 5.86128C4.21171 5.60093 3.7896 5.60093 3.52925 5.86128Z" fill="black" fill-opacity="0.46"/>
  </symbol>
  <symbol id="folder-open-icon" viewBox="0 0 24 24">
    <path d="M9.39005 3C10.5576 3.00003 11.6673 3.51005 12.4272 4.39648L13.6313 5.80176C14.0112 6.24495 14.566 6.5 15.1498 6.5H18.7699C18.8451 6.50001 18.9182 6.50868 18.9887 6.52441C21.0963 6.75942 22.6893 8.62832 22.5287 10.7959L21.9731 18.2959C21.8181 20.3844 20.0781 21.9999 17.9838 22H5.55607C3.4617 22 1.72174 20.3845 1.56681 18.2959L1.01115 10.7959C0.90057 9.30313 1.62187 7.95288 2.76993 7.17969V7C2.76993 4.79086 4.56079 3 6.76993 3H9.39005ZM5.0004 8.5C3.83771 8.5 2.92052 9.48797 3.00626 10.6475L3.56095 18.1475C3.63832 19.1918 4.50882 20 5.55607 20H17.9838C19.031 19.9999 19.9016 19.1918 19.9789 18.1475L20.5336 10.6475C20.6193 9.48804 19.7021 8.5001 18.5395 8.5H5.0004ZM6.76993 5C5.83683 5 5.05526 5.63962 4.83439 6.50391C4.88938 6.50167 4.94483 6.5 5.0004 6.5H11.5951L10.9086 5.69824C10.5287 5.25505 9.97381 5.00003 9.39005 5H6.76993Z" fill="black" fill-opacity="0.64"/>
  </symbol>
  <symbol id="notification-icon" viewBox="0 0 24 24">
    <path fill-rule="evenodd" clip-rule="evenodd" d="M12.0007 1.5C16.2023 1.50013 19.7168 4.691 20.1218 8.87305L20.8903 16.8076C21.0038 17.9826 20.0796 18.9998 18.8991 19H16.9001C16.4368 21.2821 14.4195 22.9999 12.0007 23C9.58176 23 7.56458 21.2822 7.10125 19H5.10222C3.92163 19 2.99747 17.9827 3.11101 16.8076L3.87957 8.87305C4.28452 4.69093 7.79893 1.5 12.0007 1.5ZM9.17449 19C9.58663 20.1646 10.6948 21 12.0007 21C13.3064 20.9999 14.4147 20.1646 14.8268 19H9.17449ZM12.0007 3.5C8.82873 3.5 6.17535 5.90923 5.8698 9.06641L5.10222 17H18.8991L18.1315 9.06641C17.826 5.90931 15.1725 3.50013 12.0007 3.5Z" fill="black" fill-opacity="0.64"/>
  </symbol>
</svg>
